<?xml version="1.0" encoding="UTF-8"?><svg id="Layer_1" xmlns="http://www.w3.org/2000/svg" xmlns:xlink="http://www.w3.org/1999/xlink" viewBox="0 0 477.6 308.03"><defs><style>.cls-1{fill:url(#linear-gradient-2);}.cls-2{fill:#fff;}.cls-3{fill:url(#linear-gradient-17);}.cls-4{fill:url(#linear-gradient-15);}.cls-5{fill:#1d1d1b;opacity:.5;}.cls-6{fill:url(#linear-gradient-18);}.cls-7{fill:url(#linear-gradient-14);}.cls-8{fill:url(#linear-gradient-6);}.cls-9{fill:url(#linear-gradient-11);}.cls-10{fill:url(#linear-gradient-10);}.cls-11{fill:url(#linear-gradient-16);}.cls-12{fill:url(#linear-gradient-5);}.cls-13{fill:url(#linear-gradient-7);}.cls-14{fill:#252525;}.cls-15{fill:url(#linear-gradient-9);}.cls-16{fill:url(#linear-gradient-3);}.cls-17{fill:url(#linear-gradient);}.cls-18{fill:url(#linear-gradient-4);}.cls-19{fill:url(#linear-gradient-8);}.cls-20{fill:url(#linear-gradient-12);}.cls-21{fill:url(#linear-gradient-13);}</style><linearGradient id="linear-gradient" x1="371.27" y1="-1.2" x2="175.33" y2="330.06" gradientTransform="translate(214.75 410.55) rotate(-90)" gradientUnits="userSpaceOnUse"><stop offset="0" stop-color="#ffe8c2"/><stop offset=".16" stop-color="#ffe4c0"/><stop offset=".3" stop-color="#ffdaba"/><stop offset=".43" stop-color="#ffc8b0"/><stop offset=".56" stop-color="#ffafa2"/><stop offset=".68" stop-color="#ff8f91"/><stop offset=".8" stop-color="#ff677b"/><stop offset=".91" stop-color="#ff3a62"/><stop offset="1" stop-color="#ff134d"/></linearGradient><linearGradient id="linear-gradient-2" x1="321.07" y1="-30.37" x2="125.12" y2="300.89" gradientTransform="translate(147.29 343.09) rotate(-90)" xlink:href="#linear-gradient"/><linearGradient id="linear-gradient-3" x1="402.17" y1="18.01" x2="206.22" y2="349.28" gradientTransform="translate(143.31 482) rotate(-90)" xlink:href="#linear-gradient"/><linearGradient id="linear-gradient-4" x1="351.96" y1="-11.15" x2="156.01" y2="320.11" gradientTransform="translate(75.85 414.54) rotate(-90)" xlink:href="#linear-gradient"/><linearGradient id="linear-gradient-5" x1="270.86" y1="-59.54" x2="74.91" y2="271.72" gradientTransform="translate(79.83 275.63) rotate(-90)" xlink:href="#linear-gradient"/><linearGradient id="linear-gradient-6" x1="220.65" y1="-88.71" x2="24.71" y2="242.55" gradientTransform="translate(12.37 208.17) rotate(-90)" xlink:href="#linear-gradient"/><linearGradient id="linear-gradient-7" x1="301.75" y1="-40.32" x2="105.81" y2="290.94" gradientTransform="translate(8.39 347.08) rotate(-90)" xlink:href="#linear-gradient"/><linearGradient id="linear-gradient-8" x1="251.54" y1="-69.49" x2="55.6" y2="261.77" gradientTransform="translate(-59.08 279.62) rotate(-90)" xlink:href="#linear-gradient"/><linearGradient id="linear-gradient-9" x1="329.9" y1="25.54" x2="445.79" y2="326.23" gradientTransform="matrix(1,0,0,1,0,0)" xlink:href="#linear-gradient"/><linearGradient id="linear-gradient-10" x1="314.94" y1="32.09" x2="430.82" y2="332.78" gradientTransform="matrix(1,0,0,1,0,0)" xlink:href="#linear-gradient"/><linearGradient id="linear-gradient-11" x1="371.86" y1="9.69" x2="487.75" y2="310.38" gradientTransform="matrix(1,0,0,1,0,0)" xlink:href="#linear-gradient"/><linearGradient id="linear-gradient-12" x1="356.89" y1="16.23" x2="472.78" y2="316.92" gradientTransform="matrix(1,0,0,1,0,0)" xlink:href="#linear-gradient"/><linearGradient id="linear-gradient-13" x1="299.97" y1="38.63" x2="415.85" y2="339.32" gradientTransform="matrix(1,0,0,1,0,0)" xlink:href="#linear-gradient"/><linearGradient id="linear-gradient-14" x1="285" y1="45.18" x2="400.88" y2="345.87" gradientTransform="matrix(1,0,0,1,0,0)" xlink:href="#linear-gradient"/><linearGradient id="linear-gradient-15" x1="341.92" y1="22.78" x2="457.81" y2="323.47" gradientTransform="matrix(1,0,0,1,0,0)" xlink:href="#linear-gradient"/><linearGradient id="linear-gradient-16" x1="326.96" y1="29.32" x2="442.84" y2="330.01" gradientTransform="matrix(1,0,0,1,0,0)" xlink:href="#linear-gradient"/><linearGradient id="linear-gradient-17" x1="-5.88" y1="157.21" x2="111.21" y2="286.44" gradientTransform="matrix(1,0,0,1,0,0)" xlink:href="#linear-gradient"/><linearGradient id="linear-gradient-18" x1="-27.96" y1="178.23" x2="89.13" y2="307.46" gradientTransform="matrix(1,0,0,1,0,0)" xlink:href="#linear-gradient"/></defs><rect class="cls-2" x="62.26" y="29.82" width="299" height="186.86"/><rect class="cls-17" x="283.82" y="70.73" width="57.68" height="54.34" rx="7" ry="7" transform="translate(410.55 -214.75) rotate(90)"/><rect class="cls-1" x="216.35" y="70.73" width="57.68" height="54.34" rx="7" ry="7" transform="translate(343.09 -147.29) rotate(90)"/><rect class="cls-16" x="283.82" y="142.18" width="57.68" height="54.34" rx="7" ry="7" transform="translate(482 -143.31) rotate(90)"/><rect class="cls-18" x="216.35" y="142.18" width="57.68" height="54.34" rx="7" ry="7" transform="translate(414.54 -75.85) rotate(90)"/><rect class="cls-12" x="148.89" y="70.73" width="57.68" height="54.34" rx="7" ry="7" transform="translate(275.63 -79.83) rotate(90)"/><rect class="cls-8" x="81.43" y="70.73" width="57.68" height="54.34" rx="7" ry="7" transform="translate(208.17 -12.37) rotate(90)"/><rect class="cls-13" x="148.89" y="142.18" width="57.68" height="54.34" rx="7" ry="7" transform="translate(347.08 -8.39) rotate(90)"/><rect class="cls-19" x="81.43" y="142.18" width="57.68" height="54.34" rx="7" ry="7" transform="translate(279.62 59.08) rotate(90)"/><polygon class="cls-5" points="289.53 192.73 307.54 170.85 317.52 178.61 335.78 156.46 335.78 192.73 289.53 192.73"/><circle class="cls-5" cx="299.4" cy="155.63" r="4.78"/><polygon class="cls-5" points="289.53 120.75 307.54 98.87 317.52 106.63 335.78 84.48 335.78 120.75 289.53 120.75"/><circle class="cls-5" cx="299.4" cy="83.65" r="4.78"/><polygon class="cls-5" points="222.07 192.73 240.08 170.85 250.06 178.61 268.32 156.46 268.32 192.73 222.07 192.73"/><circle class="cls-5" cx="231.94" cy="155.63" r="4.78"/><polygon class="cls-5" points="222.07 120.75 240.08 98.87 250.06 106.63 268.32 84.48 268.32 120.75 222.07 120.75"/><circle class="cls-5" cx="231.94" cy="83.65" r="4.78"/><polygon class="cls-5" points="154.61 192.73 172.62 170.85 182.6 178.61 200.86 156.46 200.86 192.73 154.61 192.73"/><circle class="cls-5" cx="164.48" cy="155.63" r="4.78"/><polygon class="cls-5" points="154.61 120.75 172.62 98.87 182.6 106.63 200.86 84.48 200.86 120.75 154.61 120.75"/><circle class="cls-5" cx="164.48" cy="83.65" r="4.78"/><polygon class="cls-5" points="87.14 192.73 105.16 170.85 115.14 178.61 133.4 156.46 133.4 192.73 87.14 192.73"/><circle class="cls-5" cx="97.02" cy="155.63" r="4.78"/><polygon class="cls-5" points="87.14 120.75 105.16 98.87 115.14 106.63 133.4 84.48 133.4 120.75 87.14 120.75"/><circle class="cls-5" cx="97.02" cy="83.65" r="4.78"/><circle class="cls-14" cx="97.02" cy="50.52" r="4.78"/><rect class="cls-14" x="106.59" y="48.03" width="20.37" height="4.98"/><rect class="cls-14" x="265.11" y="48.03" width="20.37" height="4.98"/><rect class="cls-14" x="292.28" y="48.03" width="20.37" height="4.98"/><rect class="cls-14" x="319.45" y="48.03" width="20.37" height="4.98"/><path class="cls-14" d="m355.79,15.37H67.14c-7.8,0-14.13,6.33-14.13,14.13v188.61c0,7.8,6.33,14.13,14.13,14.13h120.92v35.53c0,1.82-1.47,3.29-3.29,3.29h-8.87c-1.82,0-3.29,1.47-3.29,3.29v8.17c0,1.82,1.47,3.29,3.29,3.29h71.12c1.82,0,3.29-1.47,3.29-3.29v-8.17c0-1.82-1.47-3.29-3.29-3.29h-8.87c-1.82,0-3.29-1.47-3.29-3.29v-35.53h120.92c7.81,0,14.14-6.33,14.14-14.14V29.5c0-7.79-6.34-14.13-14.14-14.13Zm1.28,193.61c0,1.94-1.58,3.51-3.51,3.51H69.37c-1.94,0-3.51-1.58-3.51-3.51V38.63c0-1.94,1.58-3.51,3.51-3.51h284.18c1.94,0,3.51,1.58,3.51,3.51v170.34Z"/><rect class="cls-2" x="320.63" y="79.53" width="134.53" height="208.22"/><rect class="cls-15" x="345.65" y="98.47" width="38.8" height="36.56" rx="7" ry="7"/><rect class="cls-10" x="345.65" y="143.86" width="38.8" height="36.56" rx="7" ry="7"/><rect class="cls-9" x="393.72" y="98.47" width="38.8" height="36.56" rx="7" ry="7"/><rect class="cls-20" x="393.72" y="143.86" width="38.8" height="36.56" rx="7" ry="7"/><rect class="cls-21" x="345.65" y="189.25" width="38.8" height="36.56" rx="7" ry="7"/><rect class="cls-7" x="345.65" y="234.64" width="38.8" height="36.56" rx="7" ry="7"/><rect class="cls-4" x="393.72" y="189.25" width="38.8" height="36.56" rx="7" ry="7"/><rect class="cls-11" x="393.72" y="234.64" width="38.8" height="36.56" rx="7" ry="7"/><polygon class="cls-5" points="349.51 131.4 361.67 116.62 368.41 121.86 380.74 106.9 380.74 131.4 349.51 131.4"/><circle class="cls-5" cx="356.18" cy="106.34" r="3.23"/><polygon class="cls-5" points="397.51 131.4 409.67 116.62 416.41 121.86 428.74 106.9 428.74 131.4 397.51 131.4"/><circle class="cls-5" cx="404.18" cy="106.34" r="3.23"/><polygon class="cls-5" points="349.51 176.28 361.67 161.5 368.41 166.75 380.74 151.78 380.74 176.28 349.51 176.28"/><circle class="cls-5" cx="356.18" cy="151.22" r="3.23"/><polygon class="cls-5" points="397.51 176.28 409.67 161.5 416.41 166.75 428.74 151.78 428.74 176.28 397.51 176.28"/><circle class="cls-5" cx="404.18" cy="151.22" r="3.23"/><polygon class="cls-5" points="349.51 221.67 361.67 206.89 368.41 212.13 380.74 197.17 380.74 221.67 349.51 221.67"/><circle class="cls-5" cx="356.18" cy="196.61" r="3.23"/><polygon class="cls-5" points="397.51 221.67 409.67 206.89 416.41 212.13 428.74 197.17 428.74 221.67 397.51 221.67"/><circle class="cls-5" cx="404.18" cy="196.61" r="3.23"/><polygon class="cls-5" points="349.51 267.06 361.67 252.28 368.41 257.52 380.74 242.56 380.74 267.06 349.51 267.06"/><circle class="cls-5" cx="356.18" cy="242" r="3.23"/><polygon class="cls-5" points="397.51 267.06 409.67 252.28 416.41 257.52 428.74 242.56 428.74 267.06 397.51 267.06"/><circle class="cls-5" cx="404.18" cy="242" r="3.23"/><path class="cls-14" d="m448.84,75.82h-120.55c-7.8,0-14.14,6.34-14.14,14.14v188.61c0,7.79,6.34,14.13,14.14,14.13h120.55c7.8,0,14.13-6.34,14.13-14.13V89.96c0-7.8-6.33-14.14-14.13-14.14Zm6.32,198.73c0,5.02-4.08,9.1-9.11,9.1h-114.36c-5.02,0-9.1-4.08-9.1-9.1V93.36c0-5.02,4.08-9.11,9.1-9.11h114.36c5.02,0,9.11,4.09,9.11,9.11v181.19Z"/><rect class="cls-2" x="21.41" y="188.04" width="54.16" height="101.02"/><rect class="cls-3" x="27.4" y="197.07" width="38.8" height="36.56" rx="7" ry="7"/><rect class="cls-6" x="27.4" y="242.46" width="38.8" height="36.56" rx="7" ry="7"/><polygon class="cls-5" points="31.18 229.49 43.35 214.71 50.09 219.96 62.42 205 62.42 229.49 31.18 229.49"/><circle class="cls-5" cx="37.85" cy="204.44" r="3.23"/><polygon class="cls-5" points="31.18 274.88 43.35 260.1 50.09 265.34 62.42 250.38 62.42 274.88 31.18 274.88"/><circle class="cls-5" cx="37.85" cy="249.82" r="3.23"/><path class="cls-14" d="m64.84,183.54H28.76c-7.79,0-14.13,6.34-14.13,14.13v82.2c0,7.79,6.34,14.13,14.13,14.13h36.08c7.79,0,14.13-6.34,14.13-14.13v-82.2c0-7.79-6.34-14.13-14.13-14.13Zm7.35,15.13v78.74c0,5.32-4.08,9.64-9.09,9.64H30.5c-5.01,0-9.09-4.33-9.09-9.64v-78.74c0-5.32,4.08-9.64,9.09-9.64h32.59c5.01,0,9.09,4.33,9.09,9.64Z"/></svg>